<svg xmlns="http://www.w3.org/2000/svg" width="20.896" height="20.895" viewBox="0 0 20.896 20.895"><defs><style>.a{fill:#feaf02;}</style></defs><g transform="translate(-1 -1.018)"><g transform="translate(1 1.018)"><path class="a" d="M21.348,17.138l-4.23-2.821a1.234,1.234,0,0,0-1.653.268L14.234,16.17a.527.527,0,0,1-.675.142l-.234-.129a14.163,14.163,0,0,1-3.691-2.9,14.221,14.221,0,0,1-2.9-3.691l-.129-.234a.527.527,0,0,1,.139-.678L8.328,7.449A1.235,1.235,0,0,0,8.6,5.8L5.776,1.566A1.228,1.228,0,0,0,4.12,1.194L2.352,2.256A2.5,2.5,0,0,0,1.214,3.732c-.637,2.321-.158,6.325,5.742,12.226,4.693,4.693,8.187,5.955,10.588,5.955a6.169,6.169,0,0,0,1.637-.214,2.492,2.492,0,0,0,1.476-1.138l1.063-1.768A1.228,1.228,0,0,0,21.348,17.138Zm-.228,1.3L20.06,20.205A1.8,1.8,0,0,1,19,21.028c-2.142.588-5.885.1-11.549-5.563S1.3,6.059,1.886,3.917A1.8,1.8,0,0,1,2.71,2.853L4.479,1.792a.533.533,0,0,1,.718.162l1.532,2.3L8.015,6.183A.536.536,0,0,1,7.9,6.9L6.316,8.132A1.219,1.219,0,0,0,5.993,9.7l.126.228a14.772,14.772,0,0,0,3.018,3.851,14.788,14.788,0,0,0,3.851,3.018l.229.126a1.219,1.219,0,0,0,1.564-.323l1.232-1.583a.536.536,0,0,1,.717-.116l4.229,2.821A.532.532,0,0,1,21.121,18.437Z" transform="translate(-1 -1.018)"/></g></g></svg>