<svg xmlns="http://www.w3.org/2000/svg" width="96" height="108" viewBox="0 0 96 108"><defs><style>.a,.b{fill:#fff;}.b{font-size:23px;font-family:CenturyGothic-Bold, Century Gothic;letter-spacing:0.229em;font-weight:700;}.c{font-size:14px;font-family:CenturyGothic, Century Gothic;font-weight:400;}</style></defs><g transform="translate(2018 -3116)"><path class="a" d="M27.949-.818l-.467-.522L-1.63,29.613l.1.172c.118.193,2.91,4.643,14.058,4.888V47.782a4.774,4.774,0,0,0,4.727,4.81H36.972a4.774,4.774,0,0,0,4.727-4.81v-13.1h.108c11.594-.11,14.474-4.7,14.592-4.9l.1-.172Zm13.858,34.99H41.7V29.754h-.513V47.782a4.256,4.256,0,0,1-4.214,4.288H17.258a4.257,4.257,0,0,1-4.193-4.288v-13.1h0v-.522h0V29.754h-.513v4.4C2.9,33.937-.357,30.464-.973,29.65L27.358-.457l.123-.125L55.844,29.65c-.626.825-3.988,4.418-14.037,4.512Z" transform="translate(-1997.37 3117.34)"/><text class="b" transform="translate(-1970 3202)"><tspan x="-47.376" y="0">DOGGY </tspan><tspan class="c"><tspan x="-29.1" y="19">HOUSE</tspan></tspan></text></g></svg>